<svg width="254" height="194" viewBox="0 0 254 194" fill="none" xmlns="http://www.w3.org/2000/svg">
<g clip-path="url(#clip0_1_55)">
<path d="M23.4402 193.695L23.4284 193.772C23.4143 193.697 23.4008 193.621 23.3879 193.545C23.3644 193.423 23.344 193.301 23.3248 193.178C22.5621 188.377 22.9818 183.461 24.5476 178.859C24.8486 177.96 25.1914 177.078 25.576 176.213C27.0468 172.861 29.132 169.814 31.7238 167.23C32.5653 166.369 33.5254 165.632 34.5751 165.042C34.7293 164.96 34.8842 164.883 35.0426 164.812C36.0134 164.341 37.1064 164.182 38.171 164.358C38.5577 164.431 38.9325 164.557 39.2848 164.732C39.4083 164.792 39.5272 164.858 39.6439 164.929C40.3555 165.395 40.9631 166.004 41.4286 166.716C41.8941 167.428 42.2076 168.229 42.3494 169.068C42.5516 170.32 42.5053 171.599 42.2133 172.833C42.1882 172.95 42.1613 173.068 42.1324 173.185C41.9254 174.007 41.6652 174.815 41.3536 175.604C38.2344 183.629 31.5311 190.75 23.4402 193.695Z" fill="#F2F2F2"/>
<path d="M39.264 164.758C36.8301 168.255 34.5309 171.842 32.3665 175.517C30.2047 179.188 28.1843 182.939 26.3052 186.768C25.254 188.91 24.2488 191.074 23.2895 193.259C23.1833 193.501 23.5416 193.712 23.6492 193.467C25.3623 189.565 27.2214 185.732 29.2265 181.968C31.2303 178.208 33.3749 174.527 35.6602 170.926C36.9388 168.911 38.26 166.924 39.6237 164.965C39.7762 164.746 39.4159 164.54 39.264 164.758Z" fill="white"/>
<path d="M41.8683 172.854C40.0394 175.231 37.3472 176.791 34.3755 177.196C33.5465 177.309 32.7071 177.326 31.8742 177.246C31.6078 177.221 31.6059 177.636 31.8701 177.661C34.9696 177.922 38.0468 176.949 40.4337 174.955C41.1033 174.395 41.7054 173.76 42.228 173.061C42.388 172.848 42.0273 172.642 41.8683 172.854Z" fill="white"/>
<path d="M26.2471 185.748C25.8219 185.142 25.4686 184.489 25.1943 183.801C24.5678 182.234 24.3454 180.534 24.5476 178.859C24.8486 177.96 25.1914 177.078 25.576 176.213C25.5993 176.247 25.6133 176.286 25.6166 176.328C25.62 176.369 25.6126 176.41 25.5951 176.447C25.3243 177.097 25.1296 177.775 25.0149 178.469C24.6033 180.944 25.1748 183.482 26.6075 185.542C26.6257 185.564 26.6377 185.591 26.6425 185.62C26.6474 185.648 26.6448 185.677 26.6351 185.704C26.6191 185.74 26.5939 185.772 26.562 185.795C26.5302 185.818 26.4928 185.833 26.4535 185.837C26.4143 185.842 26.3746 185.836 26.3384 185.82C26.3022 185.804 26.2707 185.779 26.2471 185.748Z" fill="white"/>
<path d="M34.6372 164.779C34.1366 166.774 34.2857 168.876 35.0627 170.78C35.0902 170.828 35.1354 170.863 35.1884 170.877C35.2414 170.892 35.298 170.885 35.3459 170.858C35.3927 170.829 35.4268 170.784 35.4412 170.732C35.4556 170.679 35.4491 170.623 35.4231 170.575C34.6955 168.768 34.5605 166.777 35.0376 164.888C35.05 164.836 35.0415 164.781 35.014 164.734C34.9865 164.688 34.9421 164.654 34.8902 164.64C34.8382 164.626 34.7828 164.633 34.7356 164.658C34.6884 164.684 34.6531 164.728 34.6372 164.779Z" fill="white"/>
<path d="M23.3892 183.672L23.4144 183.745C23.3672 183.686 23.3196 183.624 23.2731 183.563C23.1956 183.466 23.1208 183.367 23.0467 183.267C20.1409 179.37 18.2294 174.822 17.4779 170.019C17.3271 169.083 17.221 168.143 17.1595 167.198C16.9051 163.546 17.3364 159.88 18.431 156.387C18.7761 155.233 19.2842 154.135 19.9397 153.125C20.0383 152.981 20.1396 152.841 20.2467 152.704C20.8876 151.836 21.7819 151.188 22.8065 150.849C23.1827 150.734 23.5731 150.671 23.9665 150.663C24.1038 150.659 24.2397 150.662 24.3757 150.67C25.2227 150.753 26.0434 151.009 26.7865 151.424C27.5296 151.838 28.1792 152.402 28.6945 153.079C29.4549 154.094 30.0082 155.248 30.3227 156.476C30.3552 156.592 30.3859 156.708 30.4147 156.825C30.6133 157.65 30.7582 158.486 30.8486 159.329C31.8145 167.885 29.186 177.305 23.3892 183.672Z" fill="#F2F2F2"/>
<path d="M23.9601 150.695C23.4294 154.923 23.0592 159.167 22.8495 163.427C22.6408 167.683 22.5937 171.942 22.7082 176.206C22.7724 178.591 22.8874 180.975 23.0532 183.356C23.0715 183.619 23.4865 183.639 23.468 183.372C23.1727 179.121 23.0386 174.863 23.0656 170.599C23.0934 166.338 23.2827 162.082 23.6337 157.831C23.8301 155.453 24.0772 153.08 24.3748 150.712C24.4081 150.447 23.9932 150.431 23.9601 150.695Z" fill="white"/>
<path d="M30.027 156.655C29.5115 159.609 27.8522 162.242 25.4088 163.981C24.7272 164.466 23.9916 164.871 23.2168 165.187C22.9692 165.288 23.1604 165.657 23.406 165.556C26.2719 164.347 28.5453 162.057 29.7326 159.182C30.0656 158.375 30.3036 157.533 30.4418 156.671C30.4846 156.408 30.0695 156.394 30.027 156.655Z" fill="white"/>
<path d="M22.183 175.33C21.5251 174.991 20.9088 174.576 20.3466 174.095C19.0637 172.998 18.0772 171.596 17.4779 170.019C17.3271 169.083 17.221 168.143 17.1595 167.198C17.196 167.217 17.2267 167.246 17.2488 167.28C17.2709 167.315 17.2835 167.355 17.2854 167.396C17.3472 168.097 17.4899 168.789 17.7108 169.456C18.4959 171.839 20.1809 173.822 22.4065 174.98C22.433 174.991 22.4561 175.01 22.4736 175.033C22.4911 175.056 22.5025 175.083 22.5065 175.111C22.509 175.151 22.5013 175.19 22.4839 175.225C22.4665 175.261 22.4401 175.291 22.4074 175.313C22.3747 175.335 22.3368 175.348 22.2974 175.351C22.258 175.354 22.2186 175.347 22.183 175.33Z" fill="white"/>
<path d="M19.8726 152.863C20.3558 154.862 21.4645 156.655 23.0371 157.98C23.0836 158.01 23.1397 158.019 23.1934 158.008C23.2471 157.996 23.2939 157.963 23.3238 157.917C23.3521 157.87 23.3613 157.815 23.3496 157.761C23.3378 157.708 23.306 157.661 23.2607 157.63C21.7771 156.369 20.7326 154.668 20.2779 152.774C20.2645 152.722 20.2314 152.677 20.1856 152.649C20.1397 152.621 20.0847 152.611 20.0321 152.623C19.9795 152.634 19.9335 152.666 19.9037 152.711C19.8739 152.756 19.8628 152.81 19.8726 152.863Z" fill="white"/>
<path d="M23.5688 193.746L23.6297 193.795C23.5578 193.77 23.4845 193.744 23.4125 193.717C23.2949 193.677 23.1787 193.634 23.0625 193.59C18.5148 191.871 14.4551 189.069 11.235 185.426C10.6041 184.719 10.0083 183.984 9.44754 183.221C7.26673 180.281 5.65533 176.959 4.69657 173.427C4.36612 172.269 4.20261 171.07 4.211 169.866C4.21654 169.692 4.2262 169.519 4.24282 169.346C4.31532 168.269 4.7199 167.242 5.40082 166.404C5.65575 166.105 5.95092 165.842 6.27794 165.623C6.39136 165.545 6.5076 165.475 6.62658 165.408C7.3847 165.022 8.21444 164.796 9.06384 164.745C9.91325 164.694 10.764 164.819 11.5629 165.112C12.75 165.557 13.8378 166.232 14.7643 167.098C14.8542 167.178 14.9427 167.259 15.03 167.342C15.6413 167.93 16.2138 168.557 16.7441 169.218C22.166 175.908 25.0243 185.26 23.5688 193.746Z" fill="#F2F2F2"/>
<path d="M6.28998 165.654C8.11982 169.502 10.0935 173.277 12.211 176.979C14.3272 180.677 16.5816 184.292 18.9743 187.823C20.313 189.798 21.6934 191.744 23.1155 193.661C23.2728 193.873 23.6332 193.666 23.4739 193.452C20.9357 190.029 18.5296 186.514 16.2555 182.905C13.9841 179.3 11.8516 175.613 9.85813 171.842C8.74292 169.732 7.673 167.6 6.64836 165.444C6.53372 165.203 6.17576 165.413 6.28998 165.654Z" fill="white"/>
<path d="M14.6114 167.408C15.7683 170.175 15.7878 173.286 14.6659 176.068C14.3528 176.844 13.951 177.581 13.4683 178.264C13.3143 178.483 13.674 178.691 13.8267 178.474C15.5904 175.912 16.2723 172.757 15.7243 169.695C15.5705 168.836 15.3173 167.998 14.9698 167.198C14.8643 166.953 14.5066 167.165 14.6114 167.408Z" fill="white"/>
<path d="M18.0598 187.367C17.3229 187.436 16.5805 187.419 15.8476 187.316C14.1759 187.083 12.5898 186.433 11.235 185.426C10.6041 184.719 10.0083 183.984 9.44756 183.221C9.48866 183.217 9.52994 183.225 9.5673 183.242C9.60466 183.26 9.63682 183.287 9.66062 183.32C10.0901 183.878 10.5827 184.383 11.1285 184.827C13.0735 186.412 15.5607 187.175 18.0598 186.952C18.0883 186.948 18.1175 186.95 18.1447 186.96C18.1718 186.97 18.1959 186.987 18.2147 187.009C18.2381 187.041 18.2527 187.078 18.2571 187.117C18.2616 187.156 18.2557 187.196 18.24 187.232C18.2244 187.269 18.1995 187.3 18.1679 187.324C18.1362 187.347 18.099 187.362 18.0598 187.367Z" fill="white"/>
<path d="M4.0135 169.682C5.4973 171.106 7.39686 172.019 9.43568 172.289C9.54773 172.304 9.64215 172.183 9.64321 172.081C9.64191 172.027 9.61963 171.975 9.58099 171.936C9.54235 171.897 9.49031 171.875 9.43568 171.874C7.50599 171.609 5.7101 170.739 4.30699 169.388C4.11461 169.203 3.82075 169.496 4.0135 169.682Z" fill="white"/>
<path d="M51.8981 139.006C52.3034 138.728 52.6429 138.364 52.8926 137.941C53.1423 137.518 53.2961 137.045 53.3433 136.556C53.3905 136.067 53.3299 135.573 53.1657 135.11C53.0015 134.647 52.7378 134.225 52.3931 133.875L53.697 104.77L47.0586 105.515L47.4443 133.984C46.8943 134.602 46.5902 135.401 46.5896 136.228C46.5889 137.055 46.8918 137.854 47.4408 138.473C47.9897 139.092 48.7467 139.488 49.5682 139.586C50.3897 139.684 51.2187 139.478 51.8981 139.006Z" fill="#FFB8B8"/>
<path d="M64.0082 188.275L67.7864 188.939L71.5206 174.682L66.5702 173.702L64.0082 188.275Z" fill="#FFB8B8"/>
<path d="M74.4559 193.728L62.5818 191.641L63.3883 187.053L70.6747 188.334C71.2772 188.44 71.8529 188.663 72.369 188.992C72.8851 189.32 73.3314 189.747 73.6825 190.248C74.0337 190.749 74.2827 191.314 74.4154 191.911C74.5481 192.508 74.5619 193.126 74.4559 193.728Z" fill="#2F2E41"/>
<path d="M53.638 190.166L57.4742 190.166L59.299 175.369L53.6374 175.369L53.638 190.166Z" fill="#FFB8B8"/>
<path d="M64.8724 193.727L52.8161 193.728L52.8159 189.07L60.214 189.07C61.4494 189.069 62.6343 189.56 63.5079 190.434C64.3815 191.307 64.8723 192.492 64.8724 193.727Z" fill="#2F2E41"/>
<path d="M69.9565 186.114C69.8967 186.114 69.8368 186.11 69.7774 186.103L65.2622 185.732C65.0567 185.708 64.8581 185.642 64.6788 185.539C64.4994 185.435 64.3428 185.297 64.2187 185.131C64.0945 184.965 64.0053 184.776 63.9565 184.575C63.9077 184.374 63.9003 184.165 63.9348 183.961L68.1041 160.593L65.2868 145.739C65.2639 145.618 65.198 145.51 65.1015 145.434C65.0049 145.358 64.8842 145.319 64.7615 145.325C64.6388 145.331 64.5224 145.382 64.4338 145.467C64.3453 145.552 64.2905 145.666 64.2796 145.789L60.7577 185.41C60.719 185.808 60.5274 186.175 60.2233 186.434C59.9191 186.693 59.5263 186.824 59.1276 186.799L54.8738 186.64C54.501 186.614 54.1508 186.452 53.8893 186.185C53.6278 185.918 53.473 185.565 53.4543 185.191L53.1684 137.703L75.222 134.947L76.7626 158.74L76.7564 158.765L71.44 184.947C71.3591 185.279 71.1689 185.575 70.8999 185.787C70.6309 185.998 70.2987 186.114 69.9565 186.114Z" fill="#2F2E41"/>
<path d="M60.4394 85.9092C64.6838 85.9092 68.1246 82.4685 68.1246 78.2241C68.1246 73.9797 64.6838 70.5389 60.4394 70.5389C56.195 70.5389 52.7543 73.9797 52.7543 78.2241C52.7543 82.4685 56.195 85.9092 60.4394 85.9092Z" fill="#FFB8B8"/>
<path d="M67.6807 141.174C66.4788 141.181 65.2999 140.844 64.2836 140.202C60.5609 137.876 56.3326 138.8 54.1435 139.559C53.9262 139.635 53.6946 139.661 53.4659 139.635C53.2373 139.609 53.0174 139.531 52.8229 139.408C52.6306 139.287 52.468 139.125 52.3475 138.932C52.227 138.74 52.1515 138.523 52.1269 138.297L48.146 102.743C47.4789 96.7865 51.0672 91.1859 56.678 89.4265C56.8888 89.3603 57.1032 89.2976 57.3211 89.2384C59.0672 88.765 60.8958 88.6799 62.6782 88.9893C64.4606 89.2987 66.1536 89.9949 67.6381 91.029C69.1501 92.0744 70.4146 93.4386 71.3427 95.0254C72.2707 96.6122 72.8397 98.3831 73.0096 100.214L76.3609 136.005C76.3837 136.237 76.3524 136.471 76.2695 136.688C76.1866 136.906 76.0543 137.101 75.883 137.259C74.7083 138.346 71.2985 141.174 67.6807 141.174Z" fill="#63FFFF"/>
<path d="M55.5586 110.368L46.5773 109.38C46.3218 109.352 46.0753 109.269 45.8547 109.137C45.634 109.005 45.4444 108.827 45.2988 108.615C45.1531 108.404 45.0548 108.163 45.0106 107.91C44.9663 107.656 44.9772 107.397 45.0424 107.148L47.3285 98.4348C47.4797 97.1282 48.1428 95.9348 49.1725 95.1164C50.2022 94.298 51.5144 93.9212 52.8214 94.0688C54.1284 94.2164 55.3236 94.8763 56.1449 95.9037C56.9661 96.9311 57.3465 98.2423 57.2025 99.5497L57.5419 108.522C57.5515 108.779 57.5057 109.035 57.4074 109.273C57.3092 109.51 57.161 109.724 56.9728 109.899C56.7846 110.074 56.5608 110.207 56.3168 110.288C56.0728 110.368 55.8142 110.396 55.5586 110.368Z" fill="#63FFFF"/>
<path d="M76.3249 137.759C76.6938 137.435 76.987 137.033 77.1839 136.583C77.3808 136.133 77.4765 135.645 77.4644 135.153C77.4523 134.662 77.3327 134.179 77.1139 133.739C76.895 133.299 76.5824 132.913 76.198 132.607L73.9849 103.556L67.4802 105.021L71.2984 133.311C70.827 133.991 70.6213 134.82 70.7204 135.642C70.8194 136.463 71.2164 137.22 71.8359 137.768C72.4555 138.316 73.2547 138.618 74.082 138.617C74.9094 138.615 75.7074 138.31 76.3249 137.759Z" fill="#FFB8B8"/>
<path d="M64.9863 108.541C64.798 108.366 64.6497 108.153 64.5515 107.915C64.4533 107.678 64.4076 107.422 64.4173 107.165L64.7567 98.1922C64.6127 96.8847 64.9931 95.5736 65.8143 94.5461C66.6356 93.5187 67.8307 92.8589 69.1378 92.7113C70.4448 92.5637 71.757 92.9404 72.7867 93.7588C73.8164 94.5773 74.4795 95.7706 74.6307 97.0772L76.9168 105.79C76.982 106.039 76.9929 106.299 76.9486 106.552C76.9044 106.805 76.8061 107.046 76.6604 107.258C76.5148 107.47 76.3252 107.648 76.1045 107.78C75.8839 107.912 75.6374 107.994 75.3819 108.023L66.4006 109.01C66.145 109.038 65.8863 109.011 65.6423 108.93C65.3982 108.849 65.1745 108.717 64.9863 108.541Z" fill="#63FFFF"/>
<path d="M59.9823 86.1988C59.8457 86.1986 59.7096 86.1827 59.5766 86.1514L59.5376 86.1419C52.7807 85.1082 51.2874 81.1945 50.9596 79.56C50.6204 77.8678 51.0067 76.2344 51.8796 75.6C51.4037 74.0972 51.4801 72.7648 52.1072 71.638C53.2009 69.6729 55.5745 69.0085 55.8928 68.9272C57.7884 67.5288 60.0564 68.4623 60.469 68.6516C64.1358 67.295 65.5372 68.4242 65.7907 68.6763C67.4298 68.9707 68.4288 69.6039 68.7605 70.5586C69.3835 72.3519 67.4133 74.5825 67.3292 74.6766L67.2855 74.7253L64.3504 74.8651C64.0719 74.8784 63.7993 74.9501 63.5503 75.0755C63.3013 75.2009 63.0814 75.3773 62.9049 75.5932C62.7285 75.8091 62.5993 76.0596 62.5259 76.3286C62.4526 76.5976 62.4365 76.879 62.4789 77.1546C62.5583 77.5102 62.6587 77.8608 62.7794 78.2045C63.2807 79.771 63.6562 81.1092 63.1718 81.618C63.0621 81.7165 62.9268 81.782 62.7816 81.8072C62.6363 81.8324 62.4869 81.8162 62.3504 81.7604C61.8915 81.6379 61.5799 81.6635 61.4247 81.8369C61.1837 82.1058 61.2572 82.7865 61.6319 83.7536C61.7494 84.0594 61.781 84.3915 61.7233 84.714C61.6657 85.0365 61.5209 85.3371 61.3046 85.5832C61.1418 85.7753 60.9392 85.9297 60.711 86.036C60.4827 86.1423 60.2341 86.1978 59.9823 86.1988Z" fill="#2F2E41"/>
<path d="M150.743 110.767H112.882C111.472 110.765 110.12 110.204 109.122 109.207C108.125 108.21 107.564 106.858 107.563 105.447V48.5523C107.564 47.142 108.125 45.7899 109.122 44.7927C110.12 43.7955 111.472 43.2345 112.882 43.233H150.743C152.153 43.2345 153.505 43.7955 154.502 44.7927C155.5 45.7899 156.061 47.142 156.062 48.5523V105.447C156.061 106.858 155.5 108.21 154.502 109.207C153.505 110.204 152.153 110.765 150.743 110.767ZM112.882 43.8588C111.638 43.8602 110.445 44.3551 109.565 45.235C108.685 46.1149 108.19 47.3079 108.188 48.5523V105.447C108.19 106.692 108.685 107.885 109.565 108.765C110.445 109.645 111.638 110.14 112.882 110.141H150.743C151.987 110.14 153.18 109.645 154.06 108.765C154.94 107.885 155.435 106.692 155.436 105.447V48.5523C155.435 47.3079 154.94 46.1149 154.06 45.235C153.18 44.3551 151.987 43.8602 150.743 43.8588H112.882Z" fill="#3F3D56"/>
<path d="M144.954 70.5855H118.671C117.965 70.5847 117.289 70.3042 116.791 69.8056C116.292 69.307 116.012 68.631 116.011 67.9258V55.4098C116.012 54.7046 116.292 54.0286 116.791 53.53C117.289 53.0314 117.965 52.7509 118.671 52.7501H144.954C145.659 52.7509 146.335 53.0314 146.834 53.53C147.333 54.0286 147.613 54.7047 147.614 55.4098V67.9258C147.613 68.6309 147.333 69.307 146.834 69.8056C146.335 70.3042 145.659 70.5847 144.954 70.5855Z" fill="#63FFFF"/>
<path d="M143.077 82.3192H120.548C119.884 82.3192 119.247 82.0555 118.778 81.586C118.309 81.1166 118.045 80.4799 118.045 79.816C118.045 79.1521 118.309 78.5154 118.778 78.046C119.247 77.5765 119.884 77.3128 120.548 77.3128H143.077C143.741 77.3128 144.377 77.5765 144.847 78.046C145.316 78.5154 145.58 79.1521 145.58 79.816C145.58 80.4799 145.316 81.1166 144.847 81.586C144.377 82.0555 143.741 82.3192 143.077 82.3192Z" fill="#CCCCCC"/>
<path d="M143.077 91.7062H120.548C119.884 91.7062 119.247 91.4425 118.778 90.973C118.309 90.5036 118.045 89.8669 118.045 89.203C118.045 88.5391 118.309 87.9024 118.778 87.433C119.247 86.9635 119.884 86.6998 120.548 86.6998H143.077C143.741 86.6998 144.377 86.9635 144.847 87.433C145.316 87.9024 145.58 88.5391 145.58 89.203C145.58 89.8669 145.316 90.5036 144.847 90.973C144.377 91.4425 143.741 91.7062 143.077 91.7062Z" fill="#CCCCCC"/>
<path d="M143.077 101.093H120.548C119.884 101.093 119.247 100.829 118.778 100.36C118.309 99.8906 118.045 99.2539 118.045 98.59C118.045 97.9261 118.309 97.2894 118.778 96.82C119.247 96.3505 119.884 96.0868 120.548 96.0868H143.077C143.741 96.0868 144.377 96.3505 144.847 96.82C145.316 97.2894 145.58 97.9261 145.58 98.59C145.58 99.2539 145.316 99.8906 144.847 100.36C144.377 100.829 143.741 101.093 143.077 101.093Z" fill="#CCCCCC"/>
<path d="M243.049 142.683H205.188C203.777 142.681 202.425 142.12 201.428 141.123C200.431 140.126 199.87 138.774 199.868 137.363V80.4681C199.87 79.0578 200.431 77.7058 201.428 76.7086C202.425 75.7113 203.777 75.1504 205.188 75.1488H243.049C244.459 75.1504 245.811 75.7113 246.808 76.7086C247.805 77.7058 248.366 79.0578 248.368 80.4681V137.363C248.366 138.774 247.805 140.126 246.808 141.123C245.811 142.12 244.459 142.681 243.049 142.683ZM205.188 75.7746C203.943 75.776 202.75 76.271 201.87 77.1509C200.99 78.0308 200.495 79.2237 200.494 80.4681V137.363C200.495 138.608 200.99 139.801 201.87 140.681C202.75 141.56 203.943 142.055 205.188 142.057H243.049C244.293 142.055 245.486 141.56 246.366 140.681C247.246 139.801 247.741 138.608 247.742 137.363V80.4681C247.741 79.2237 247.246 78.0308 246.366 77.1509C245.486 76.271 244.293 75.776 243.049 75.7746H205.188Z" fill="#3F3D56"/>
<path d="M235.382 89.203H212.854C212.19 89.203 211.553 88.9393 211.084 88.4698C210.614 88.0004 210.35 87.3637 210.35 86.6998C210.35 86.0359 210.614 85.3992 211.084 84.9298C211.553 84.4603 212.19 84.1966 212.854 84.1966H235.382C236.046 84.1966 236.683 84.4603 237.153 84.9298C237.622 85.3992 237.886 86.0359 237.886 86.6998C237.886 87.3637 237.622 88.0004 237.153 88.4698C236.683 88.9393 236.046 89.203 235.382 89.203Z" fill="#CCCCCC"/>
<path d="M235.382 98.59H212.854C212.19 98.59 211.553 98.3263 211.084 97.8568C210.614 97.3874 210.35 96.7507 210.35 96.0868C210.35 95.4229 210.614 94.7862 211.084 94.3168C211.553 93.8473 212.19 93.5836 212.854 93.5836H235.382C236.046 93.5836 236.683 93.8473 237.153 94.3168C237.622 94.7862 237.886 95.4229 237.886 96.0868C237.886 96.7507 237.622 97.3874 237.153 97.8568C236.683 98.3263 236.046 98.59 235.382 98.59Z" fill="#CCCCCC"/>
<path d="M237.26 122.527H210.976C210.271 122.526 209.595 122.245 209.096 121.747C208.598 121.248 208.317 120.572 208.317 119.867V107.351C208.317 106.646 208.598 105.97 209.096 105.471C209.595 104.973 210.271 104.692 210.976 104.691H237.26C237.965 104.692 238.641 104.973 239.14 105.471C239.638 105.97 239.919 106.646 239.919 107.351V119.867C239.919 120.572 239.638 121.248 239.14 121.747C238.641 122.245 237.965 122.526 237.26 122.527Z" fill="#E6E6E6"/>
<path d="M235.382 133.635H212.854C212.19 133.635 211.553 133.371 211.084 132.902C210.614 132.432 210.35 131.796 210.35 131.132C210.35 130.468 210.614 129.831 211.084 129.362C211.553 128.892 212.19 128.628 212.854 128.628H235.382C236.046 128.628 236.683 128.892 237.153 129.362C237.622 129.831 237.886 130.468 237.886 131.132C237.886 131.796 237.622 132.432 237.153 132.902C236.683 133.371 236.046 133.635 235.382 133.635Z" fill="#CCCCCC"/>
<path d="M219.894 52.2544H182.033C180.623 52.2528 179.271 51.6918 178.273 50.6946C177.276 49.6974 176.715 48.3453 176.714 46.935V11.63C176.715 10.2197 177.276 8.86766 178.273 7.87044C179.271 6.87322 180.623 6.31229 182.033 6.3107H219.894C221.304 6.31229 222.656 6.87322 223.653 7.87044C224.651 8.86766 225.212 10.2197 225.213 11.63V46.935C225.212 48.3453 224.651 49.6974 223.653 50.6946C222.656 51.6918 221.304 52.2528 219.894 52.2544ZM182.033 6.9365C180.789 6.93791 179.596 7.43286 178.716 8.31275C177.836 9.19265 177.341 10.3856 177.339 11.63V46.935C177.341 48.1794 177.836 49.3724 178.716 50.2523C179.596 51.1322 180.789 51.6271 182.033 51.6286H219.894C221.138 51.6271 222.331 51.1322 223.211 50.2523C224.091 49.3724 224.586 48.1794 224.587 46.935V11.63C224.586 10.3856 224.091 9.19265 223.211 8.31275C222.331 7.43286 221.138 6.93791 219.894 6.9365H182.033Z" fill="#3F3D56"/>
<path d="M212.228 41.1728H189.699C189.035 41.1728 188.398 40.9091 187.929 40.4396C187.46 39.9702 187.196 39.3335 187.196 38.6696C187.196 38.0057 187.46 37.369 187.929 36.8996C188.398 36.4301 189.035 36.1664 189.699 36.1664H212.228C212.892 36.1664 213.528 36.4301 213.998 36.8996C214.467 37.369 214.731 38.0057 214.731 38.6696C214.731 39.3335 214.467 39.9702 213.998 40.4396C213.528 40.9091 212.892 41.1728 212.228 41.1728Z" fill="#CCCCCC"/>
<path d="M212.228 31.7858H189.699C189.035 31.7858 188.398 31.522 187.929 31.0526C187.46 30.5832 187.196 29.9465 187.196 29.2826C187.196 28.6187 187.46 27.982 187.929 27.5125C188.398 27.0431 189.035 26.7794 189.699 26.7794H212.228C212.892 26.7794 213.528 27.0431 213.998 27.5125C214.467 27.982 214.731 28.6187 214.731 29.2826C214.731 29.9465 214.467 30.5832 213.998 31.0526C213.528 31.522 212.892 31.7858 212.228 31.7858Z" fill="#CCCCCC"/>
<path d="M212.228 22.3988H189.699C189.035 22.3988 188.398 22.135 187.929 21.6656C187.46 21.1961 187.196 20.5594 187.196 19.8956C187.196 19.2317 187.46 18.595 187.929 18.1255C188.398 17.6561 189.035 17.3923 189.699 17.3923H212.228C212.892 17.3923 213.528 17.6561 213.998 18.1255C214.467 18.595 214.731 19.2317 214.731 19.8956C214.731 20.5594 214.467 21.1961 213.998 21.6656C213.528 22.135 212.892 22.3988 212.228 22.3988Z" fill="#CCCCCC"/>
<path d="M152.933 51.9415C156.908 51.9415 160.13 48.7194 160.13 44.7448C160.13 40.7701 156.908 37.548 152.933 37.548C148.959 37.548 145.736 40.7701 145.736 44.7448C145.736 48.7194 148.959 51.9415 152.933 51.9415Z" fill="#63FFFF"/>
<path d="M152.22 47.4901C152.058 47.4904 151.9 47.4381 151.771 47.341L151.763 47.3349L150.071 46.04C149.993 45.9802 149.927 45.9053 149.877 45.8199C149.827 45.7344 149.795 45.6399 149.782 45.5419C149.768 45.4439 149.775 45.3442 149.8 45.2487C149.826 45.1531 149.87 45.0635 149.93 44.985C149.99 44.9065 150.065 44.8406 150.151 44.7912C150.236 44.7417 150.331 44.7097 150.429 44.6969C150.527 44.6841 150.627 44.6908 150.722 44.7166C150.818 44.7423 150.907 44.7867 150.985 44.8471L152.081 45.6871L154.67 42.311C154.73 42.2327 154.805 42.1669 154.89 42.1176C154.975 42.0682 155.07 42.0362 155.168 42.0232C155.265 42.0103 155.365 42.0168 155.46 42.0423C155.555 42.0678 155.645 42.1119 155.723 42.1719L155.707 42.1938L155.724 42.1722C155.882 42.2936 155.985 42.4727 156.011 42.6702C156.037 42.8677 155.984 43.0675 155.863 43.2257L152.818 47.1969C152.747 47.2884 152.657 47.3625 152.553 47.4133C152.449 47.4642 152.335 47.4905 152.22 47.4901Z" fill="white"/>
<path d="M246.803 84.1702C250.778 84.1702 254 80.9481 254 76.9735C254 72.9989 250.778 69.7768 246.803 69.7768C242.829 69.7768 239.607 72.9989 239.607 76.9735C239.607 80.9481 242.829 84.1702 246.803 84.1702Z" fill="#3F3D56"/>
<path d="M246.09 79.7189C245.928 79.7192 245.77 79.6668 245.641 79.5697L245.633 79.5637L243.942 78.2688C243.863 78.2089 243.797 78.1341 243.747 78.0486C243.697 77.9631 243.665 77.8687 243.652 77.7706C243.639 77.6726 243.645 77.573 243.67 77.4774C243.696 77.3818 243.74 77.2922 243.8 77.2137C243.86 77.1352 243.935 77.0694 244.021 77.0199C244.107 76.9705 244.201 76.9384 244.299 76.9256C244.397 76.9128 244.497 76.9195 244.592 76.9453C244.688 76.9711 244.777 77.0155 244.856 77.0759L245.951 77.9159L248.54 74.5397C248.6 74.4614 248.675 74.3957 248.76 74.3463C248.846 74.297 248.94 74.2649 249.038 74.252C249.136 74.2391 249.235 74.2456 249.33 74.2711C249.426 74.2966 249.515 74.3406 249.593 74.4006L249.577 74.4225L249.594 74.401C249.752 74.5224 249.855 74.7015 249.881 74.899C249.907 75.0965 249.854 75.2962 249.733 75.4545L246.688 79.4256C246.617 79.5171 246.527 79.5912 246.423 79.6421C246.319 79.6929 246.205 79.7192 246.09 79.7189Z" fill="white"/>
<path d="M223.962 14.3934C227.936 14.3934 231.158 11.1713 231.158 7.1967C231.158 3.22206 227.936 -1.52588e-05 223.962 -1.52588e-05C219.987 -1.52588e-05 216.765 3.22206 216.765 7.1967C216.765 11.1713 219.987 14.3934 223.962 14.3934Z" fill="#3F3D56"/>
<path d="M223.248 9.94209C223.086 9.94239 222.929 9.89004 222.799 9.79292L222.791 9.78688L221.1 8.49198C221.021 8.43211 220.955 8.35729 220.905 8.27181C220.856 8.18633 220.823 8.09187 220.81 7.99385C220.797 7.89583 220.803 7.79617 220.829 7.7006C220.854 7.60503 220.898 7.51543 220.958 7.43692C221.018 7.35842 221.093 7.29256 221.179 7.24313C221.265 7.19369 221.359 7.16165 221.457 7.14885C221.555 7.13604 221.655 7.14272 221.751 7.1685C221.846 7.19428 221.936 7.23866 222.014 7.29909L223.109 8.13909L225.698 4.76293C225.758 4.68462 225.833 4.6189 225.918 4.56954C226.004 4.52017 226.098 4.48811 226.196 4.4752C226.294 4.46228 226.393 4.46876 226.489 4.49427C226.584 4.51978 226.673 4.56382 226.752 4.62386L226.735 4.64571L226.752 4.62418C226.91 4.74557 227.013 4.92467 227.039 5.12217C227.065 5.31967 227.012 5.51944 226.891 5.67767L223.846 9.64884C223.776 9.74035 223.685 9.81441 223.581 9.86526C223.478 9.91612 223.364 9.94241 223.248 9.94209Z" fill="white"/>
<path d="M119.528 193.998H0.3129C0.229914 193.998 0.150326 193.965 0.0916462 193.907C0.032966 193.848 0 193.768 0 193.685C0 193.602 0.032966 193.523 0.0916462 193.464C0.150326 193.405 0.229914 193.372 0.3129 193.372H119.528C119.611 193.372 119.691 193.405 119.749 193.464C119.808 193.523 119.841 193.602 119.841 193.685C119.841 193.768 119.808 193.848 119.749 193.907C119.691 193.965 119.611 193.998 119.528 193.998Z" fill="#3F3D56"/>
</g>
<defs>
<clipPath id="clip0_1_55">
<rect width="254" height="193.998" fill="white"/>
</clipPath>
</defs>
</svg>
